<?xml version="1.0" encoding="UTF-8"?>
<svg xmlns="http://www.w3.org/2000/svg" width="160" height="28" viewBox="0 0 160 28" fill="none">
  <path d="M14.7725 2.93262H0.00439453V6.19967H14.7725V2.93262Z" fill="#0085FF"></path>
  <path d="M22.013 21.6785H0V24.9455H22.013V21.6785Z" fill="#0085FF"></path>
  <path d="M15.479 15.4397H0.00439453V18.7068H15.479V15.4397Z" fill="#0085FF"></path>
  <path d="M22.0131 15.4397H18.7461V18.7068H22.0131V15.4397Z" fill="#0085FF"></path>
  <path d="M22.0214 9.16699H9.80957V12.434H22.0214V9.16699Z" fill="#0085FF"></path>
  <path d="M6.54267 9.16699H0V12.434H6.54267V9.16699Z" fill="#0085FF"></path>
  <path d="M25.2589 24.9456V6.19967H18.0439V2.93262H36.0791V6.19967H28.8942V24.9456H25.2546H25.2589Z" fill="#1D1D1D"></path>
  <path d="M57.3983 24.9456V2.93262H61.0379V12.768H61.3462L71.0574 2.93262H75.5577L65.0757 13.633L76.1742 24.9499H71.1773L61.3419 14.9903H61.0336V24.9499H57.394L57.3983 24.9456Z" fill="#1D1D1D"></path>
  <path d="M78.3838 24.9456V2.93262H94.2309V6.19967H82.0234V12.3056H92.8436V15.5726H82.0234V21.6786H94.3894V24.9456H78.3881H78.3838Z" fill="#1D1D1D"></path>
  <path d="M120.26 24.9456V2.93262H129.047C134.904 2.93262 139.653 5.89138 139.653 13.9413C139.653 21.9911 134.904 24.9499 129.047 24.9499H120.26V24.9456ZM123.9 21.6786H128.588C133.153 21.6786 135.863 19.4606 135.863 13.9413C135.863 8.42195 133.149 6.20395 128.588 6.20395H123.9V21.6786Z" fill="#1D1D1D"></path>
  <path d="M141.991 18.6854C141.991 18.5313 141.991 18.3471 142.021 18.163H145.66C145.63 18.2872 145.63 18.4114 145.63 18.5013C145.63 20.7193 147.326 22.2308 150.965 22.2308C154.605 22.2308 156.206 20.9377 156.206 18.9937C156.206 13.8469 142.393 17.6364 142.393 9.00413C142.393 5.21041 145.416 2.5 150.871 2.5C156.947 2.5 159.504 5.36884 159.504 9.25248V9.71492H155.864V9.37666C155.864 7.18863 154.537 5.61719 150.961 5.61719C147.724 5.61719 146.183 6.91031 146.183 8.85427C146.183 14.1252 159.996 10.3957 159.996 18.8738C159.996 22.5434 156.943 25.3779 151.115 25.3779C144.333 25.3779 141.991 22.0809 141.991 18.6897V18.6854Z" fill="#1D1D1D"></path>
  <path d="M49.9892 14.541L36.8325 17.8262L37.624 20.9959L50.7807 17.7107L49.9892 14.541Z" fill="#1D1D1D"></path>
  <path d="M46.5268 2.93262H42.0865L33.4243 24.9456H37.3679L39.2819 19.8288L40.4209 16.5575L44.0604 6.9704H44.3687L48.0383 16.5575L49.1773 19.8288L51.0912 24.9456H55.189L46.5268 2.93262Z" fill="#1D1D1D"></path>
  <path d="M113.141 14.5051L99.7183 17.8567L100.51 21.0264L113.932 17.6748L113.141 14.5051Z" fill="#1D1D1D"></path>
  <path d="M109.542 2.93262H105.102L96.4399 24.9456H100.388L102.298 19.8288L103.436 16.5575L107.076 6.9704H107.384L111.054 16.5575L112.193 19.8288L114.107 24.9456H118.209L109.542 2.93262Z" fill="#1D1D1D"></path>
</svg>
